# xmcd CD database file
#
# Track frame offsets:
#	150
#	22292
#	41100
#	69755
#	87922
#	112482
#	140372
#	161950
#
# Disc length: 2398 seconds
#
# Revision: 0
# Processed by: cddbd v1.5.2PL0 Copyright (c) Steve Scherf et al.
# Submitted via: CDex 1.70beta2
#
DISCID=75095c08
DTITLE=Steve Fowler - Captured
DYEAR=1994
DGENRE=Jazz
TTITLE0=The Pygmy Forest
TTITLE1=Colors For Marvin
TTITLE2=For H H He Is Abnormal
TTITLE3=The Gentlemen Of Leisure
TTITLE4=The Wayside
TTITLE5=They Hang Out
TTITLE6=Bikini Pralysis
TTITLE7=Drowning In The Air
EXTD=YEAR: 1994
EXTT0=
EXTT1=
EXTT2=
EXTT3=
EXTT4=
EXTT5=
EXTT6=
EXTT7=
PLAYORDER=
